<svg xmlns="http://www.w3.org/2000/svg" viewBox="0 0 480 480" width="480" height="480" role="img" xmlns:c2pa="http://c2pa.org/manifest"><metadata><c2pa:manifest>AAAWgmp1bWIAAAAeanVtZGMycGEAEQAQgAAAqgA4m3EDYzJwYQAAABZcanVtYgAAAEdqdW1kYzJtYQARABCAAACqADibcQN1cm46YzJwYTpmZWZmY2I5ZS00NjM5LTRjMDgtYTE1OS1iMDk3ZjllMmJhYzkAAAADl2p1bWIAAAApanVtZGMyYXMAEQAQgAAAqgA4m3EDYzJwYS5hc3NlcnRpb25zAAAAALxqdW1iAAAARGp1bWRjYm9yABEAEIAAAKoAOJtxE2MycGEuaW5ncmVkaWVudC52MwAAAAAYYzJzaOGdLAnvdQ2L+AUhrNk33nQAAABwY2JvcqNpZGM6Zm9ybWF0bWltYWdlL3N2Zyt4bWxqaW5zdGFuY2VJRHgseG1wOmlpZDpjNjZlNDhmZi1iZDM1LTQ5MGEtOGQxYi1hYjkyYTYzNWFjNmNscmVsYXRpb25zaGlwaHBhcmVudE9mAAAB4mp1bWIAAABBanVtZGNib3IAEQAQgAAAqgA4m3ETYzJwYS5hY3Rpb25zLnYyAAAAABhjMnNoXVR2j9o6c52uOvTOhsRqkQAAAZljYm9yomdhY3Rpb25zgqJmYWN0aW9ua2MycGEub3BlbmVkanBhcmFtZXRlcnOha2luZ3JlZGllbnRzgaJjdXJseC1zZWxmI2p1bWJmPWMycGEuYXNzZXJ0aW9ucy9jMnBhLmluZ3JlZGllbnQudjNkaGFzaFggwyRF2i78DSLqG1vaGYrSyd5ZU45djN17xOybRTTYQmqkZmFjdGlvbngdY29tLmFudGhyb3BpYy5jbGF1ZGUucHJvdmlkZWRqcGFyYW1ldGVyc6F4H2NvbS5hbnRocm9waWMub3JpZ2luLWNvbmZpZGVuY2VndW5rbm93bmtkZXNjcmlwdGlvbnhmQ2xhdWRlIHByb3ZpZGVkIHRoaXMgZmlsZSBhdCB0aGUgcmVxdWVzdCBvZiBhIHVzZXIgYW5kIG1heSBoYXZlIGNyZWF0ZWQgb3IgbW9kaWZpZWQgdGhlIGZpbGUgY29udGVudHMubXNvZnR3YXJlQWdlbnShZG5hbWVmQ2xhdWRlcmFsbEFjdGlvbnNJbmNsdWRlZPUAAADIanVtYgAAAEBqdW1kY2JvcgARABCAAACqADibcRNjMnBhLmhhc2guZGF0YQAAAAAYYzJzaLaJOrUhO4VYJRhMlqJ5JDkAAACAY2JvcqVjYWxnZnNoYTI1NmNwYWRNAAAAAAAAAAAAAAAAAGRoYXNoWCBDOnuaxwn2mSE7IhSX3GeAWQORgsN/7EqcBZuZSsKO6WRuYW1lbmp1bWJmIG1hbmlmZXN0amV4Y2x1c2lvbnOBomVzdGFydBihZmxlbmd0aBkeBAAAAj5qdW1iAAAAJ2p1bWRjMmNsABEAEIAAAKoAOJtxA2MycGEuY2xhaW0udjIAAAACD2Nib3KlY2FsZ2ZzaGEyNTZpc2lnbmF0dXJleE1zZWxmI2p1bWJmPS9jMnBhL3VybjpjMnBhOmZlZmZjYjllLTQ2MzktNGMwOC1hMTU5LWIwOTdmOWUyYmFjOS9jMnBhLnNpZ25hdHVyZWppbnN0YW5jZUlEeCx4bXA6aWlkOmNlMGNiZWZiLWU0YTAtNDZmZC05MzhmLTM5NzgyZTdmMWEwMnJjcmVhdGVkX2Fzc2VydGlvbnODomN1cmx4LXNlbGYjanVtYmY9YzJwYS5hc3NlcnRpb25zL2MycGEuaW5ncmVkaWVudC52M2RoYXNoWCDDJEXaLvwNIuobW9oZitLJ3llTjl2M3XvE7JtFNNhCaqJjdXJseCpzZWxmI2p1bWJmPWMycGEuYXNzZXJ0aW9ucy9jMnBhLmFjdGlvbnMudjJkaGFzaFggVuNg4xcLIGZjhjDWAt/EPDGoGp92YAPm0LBp3wnnjsaiY3VybHgpc2VsZiNqdW1iZj1jMnBhLmFzc2VydGlvbnMvYzJwYS5oYXNoLmRhdGFkaGFzaFggWEURK3ysk2Ca79K9+VsrGxZxYt2O4FMCxmMB/KWGjdt0Y2xhaW1fZ2VuZXJhdG9yX2luZm+jZG5hbWVvQW50aHJvcGljIEZpbGVzZ3ZlcnNpb25lMS4wLjBrc3BlY1ZlcnNpb25lMi40LjAAABA4anVtYgAAAChqdW1kYzJjcwARABCAAACqADibcQNjMnBhLnNpZ25hdHVyZQAAABAIY2JvctKEWQISogEmGCFZAgowggIGMIIBjaADAgECAhRA5aAK7sI50L64g/oGQgU9Z1UTADAKBggqhkjOPQQDAzBJMRcwFQYDVQQKEw5BbnRocm9waWMsIFBCQzEuMCwGA1UEAxMlQW50aHJvcGljIENvbnRlbnQgQ3JlZGVudGlhbHMgUm9vdCBDQTAeFw0yNjA4MDcxODQzNTZaFw0yODA4MDYxOTQzNTZaMEQxFzAVBgNVBAoTDkFudGhyb3BpYywgUEJDMSkwJwYDVQQDEyBBbnRocm9waWMgQ2xhdWRlIENvbnRlbnQgU2lnbmluZzBZMBMGByqGSM49AgEGCCqGSM49AwEHA0IABJh6CmvLUBgFFNU0vUKlOVtE6djd17L5SuwX0LemFisBM3dkd/3cyjxFA3Qo5S46fX0/ihY0VZ7mfb9KF703t5OjWDBWMA4GA1UdDwEB/wQEAwIHgDAVBgNVHSUEDjAMBgorBgEEAYPoXgIBMAwGA1UdEwEB/wQCMAAwHwYDVR0jBBgwFoAUzlHiBIFOZFsj+OPEz5o+nMHXXMIwCgYIKoZIzj0EAwMDZwAwZAIwMXMdFJ4BetLLVY7ORuE9noqbbAZOZn/aArXyTwFAZfKrPzxF2vPoJNf1+UCdg1XGAjBwX1zd9WGqYkqmL5SFqw1QySjr1zJfpJM9+1rdDwSPLMOPOjKuiXjoU/pUUeG9RwmhY3BhZFkNngAAAAAAAAAAAAAAAAAAAAAAAAAAAAAAAAAAAAAAAAAAAAAAAAAAAAAAAAAAAAAAAAAAAAAAAAAAAAAAAAAAAAAAAAAAAAAAAAAAAAAAAAAAAAAAAAAAAAAAAAAAAAAAAAAAAAAAAAAAAAAAAAAAAAAAAAAAAAAAAAAAAAAAAAAAAAAAAAAAAAAAAAAAAAAAAAAAAAAAAAAAAAAAAAAAAAAAAAAAAAAAAAAAAAAAAAAAAAAAAAAAAAAAAAAAAAAAAAAAAAAAAAAAAAAAAAAAAAAAAAAAAAAAAAAAAAAAAAAAAAAAAAAAAAAAAAAAAAAAAAAAAAAAAAAAAAAAAAAAAAAAAAAAAAAAAAAAAAAAAAAAAAAAAAAAAAAAAAAAAAAAAAAAAAAAAAAAAAAAAAAAAAAAAAAAAAAAAAAAAAAAAAAAAAAAAAAAAAAAAAAAAAAAAAAAAAAAAAAAAAAAAAAAAAAAAAAAAAAAAAAAAAAAAAAAAAAAAAAAAAAAAAAAAAAAAAAAAAAAAAAAAAAAAAAAAAAAAAAAAAAAAAAAAAAAAAAAAAAAAAAAAAAAAAAAAAAAAAAAAAAAAAAAAAAAAAAAAAAAAAAAAAAAAAAAAAAAAAAAAAAAAAAAAAAAAAAAAAAAAAAAAAAAAAAAAAAAAAAAAAAAAAAAAAAAAAAAAAAAAAAAAAAAAAAAAAAAAAAAAAAAAAAAAAAAAAAAAAAAAAAAAAAAAAAAAAAAAAAAAAAAAAAAAAAAAAAAAAAAAAAAAAAAAAAAAAAAAAAAAAAAAAAAAAAAAAAAAAAAAAAAAAAAAAAAAAAAAAAAAAAAAAAAAAAAAAAAAAAAAAAAAAAAAAAAAAAAAAAAAAAAAAAAAAAAAAAAAAAAAAAAAAAAAAAAAAAAAAAAAAAAAAAAAAAAAAAAAAAAAAAAAAAAAAAAAAAAAAAAAAAAAAAAAAAAAAAAAAAAAAAAAAAAAAAAAAAAAAAAAAAAAAAAAAAAAAAAAAAAAAAAAAAAAAAAAAAAAAAAAAAAAAAAAAAAAAAAAAAAAAAAAAAAAAAAAAAAAAAAAAAAAAAAAAAAAAAAAAAAAAAAAAAAAAAAAAAAAAAAAAAAAAAAAAAAAAAAAAAAAAAAAAAAAAAAAAAAAAAAAAAAAAAAAAAAAAAAAAAAAAAAAAAAAAAAAAAAAAAAAAAAAAAAAAAAAAAAAAAAAAAAAAAAAAAAAAAAAAAAAAAAAAAAAAAAAAAAAAAAAAAAAAAAAAAAAAAAAAAAAAAAAAAAAAAAAAAAAAAAAAAAAAAAAAAAAAAAAAAAAAAAAAAAAAAAAAAAAAAAAAAAAAAAAAAAAAAAAAAAAAAAAAAAAAAAAAAAAAAAAAAAAAAAAAAAAAAAAAAAAAAAAAAAAAAAAAAAAAAAAAAAAAAAAAAAAAAAAAAAAAAAAAAAAAAAAAAAAAAAAAAAAAAAAAAAAAAAAAAAAAAAAAAAAAAAAAAAAAAAAAAAAAAAAAAAAAAAAAAAAAAAAAAAAAAAAAAAAAAAAAAAAAAAAAAAAAAAAAAAAAAAAAAAAAAAAAAAAAAAAAAAAAAAAAAAAAAAAAAAAAAAAAAAAAAAAAAAAAAAAAAAAAAAAAAAAAAAAAAAAAAAAAAAAAAAAAAAAAAAAAAAAAAAAAAAAAAAAAAAAAAAAAAAAAAAAAAAAAAAAAAAAAAAAAAAAAAAAAAAAAAAAAAAAAAAAAAAAAAAAAAAAAAAAAAAAAAAAAAAAAAAAAAAAAAAAAAAAAAAAAAAAAAAAAAAAAAAAAAAAAAAAAAAAAAAAAAAAAAAAAAAAAAAAAAAAAAAAAAAAAAAAAAAAAAAAAAAAAAAAAAAAAAAAAAAAAAAAAAAAAAAAAAAAAAAAAAAAAAAAAAAAAAAAAAAAAAAAAAAAAAAAAAAAAAAAAAAAAAAAAAAAAAAAAAAAAAAAAAAAAAAAAAAAAAAAAAAAAAAAAAAAAAAAAAAAAAAAAAAAAAAAAAAAAAAAAAAAAAAAAAAAAAAAAAAAAAAAAAAAAAAAAAAAAAAAAAAAAAAAAAAAAAAAAAAAAAAAAAAAAAAAAAAAAAAAAAAAAAAAAAAAAAAAAAAAAAAAAAAAAAAAAAAAAAAAAAAAAAAAAAAAAAAAAAAAAAAAAAAAAAAAAAAAAAAAAAAAAAAAAAAAAAAAAAAAAAAAAAAAAAAAAAAAAAAAAAAAAAAAAAAAAAAAAAAAAAAAAAAAAAAAAAAAAAAAAAAAAAAAAAAAAAAAAAAAAAAAAAAAAAAAAAAAAAAAAAAAAAAAAAAAAAAAAAAAAAAAAAAAAAAAAAAAAAAAAAAAAAAAAAAAAAAAAAAAAAAAAAAAAAAAAAAAAAAAAAAAAAAAAAAAAAAAAAAAAAAAAAAAAAAAAAAAAAAAAAAAAAAAAAAAAAAAAAAAAAAAAAAAAAAAAAAAAAAAAAAAAAAAAAAAAAAAAAAAAAAAAAAAAAAAAAAAAAAAAAAAAAAAAAAAAAAAAAAAAAAAAAAAAAAAAAAAAAAAAAAAAAAAAAAAAAAAAAAAAAAAAAAAAAAAAAAAAAAAAAAAAAAAAAAAAAAAAAAAAAAAAAAAAAAAAAAAAAAAAAAAAAAAAAAAAAAAAAAAAAAAAAAAAAAAAAAAAAAAAAAAAAAAAAAAAAAAAAAAAAAAAAAAAAAAAAAAAAAAAAAAAAAAAAAAAAAAAAAAAAAAAAAAAAAAAAAAAAAAAAAAAAAAAAAAAAAAAAAAAAAAAAAAAAAAAAAAAAAAAAAAAAAAAAAAAAAAAAAAAAAAAAAAAAAAAAAAAAAAAAAAAAAAAAAAAAAAAAAAAAAAAAAAAAAAAAAAAAAAAAAAAAAAAAAAAAAAAAAAAAAAAAAAAAAAAAAAAAAAAAAAAAAAAAAAAAAAAAAAAAAAAAAAAAAAAAAAAAAAAAAAAAAAAAAAAAAAAAAAAAAAAAAAAAAAAAAAAAAAAAAAAAAAAAAAAAAAAAAAAAAAAAAAAAAAAAAAAAAAAAAAAAAAAAAAAAAAAAAAAAAAAAAAAAAAAAAAAAAAAAAAAAAAAAAAAAAAAAAAAAAAAAAAAAAAAAAAAAAAAAAAAAAAAAAAAAAAAAAAAAAAAAAAAAAAAAAAAAAAAAAAAAAAAAAAAAAAAAAAAAAAAAAAAAAAAAAAAAAAAAAAAAAAAAAAAAAAAAAAAAAAAAAAAAAAAAAAAAAAAAAAAAAAAAAAAAAAAAAAAAAAAAAAAAAAAAAAAAAAAAAAAAAAAAAAAAAAAAAAAAAAAAAAAAAAAAAAAAAAAAAAAAAAAAAAAAAAAAAAAAAAAAAAAAAAAAAAAAAAAAAAAAAAAAAAAAAAAAAAAAAAAAAAAAAAAAAAAAAAAAAAAAAAAAAAAAAAAAAAAAAAAAAAAAAAAAAAAAAAAAAAAAAAAAAAAAAAAAAAAAAAAAAAAAAAAAAAAAAAAAAAAAAAAAAAAAAAAAAAAAAAAAAAAAAAAAAAAAAAAAAAAAAAAAAAAAAAAAAAAAAAAAAAAAAAAAAAAAAAAAAAAAAAAAAAAAAAAAAAAAAAAAAAAAAAAAAAAAAAAAAAAAAAAAAAAAAAAAAAAAAAAAAAAAAAAAAAAAAAAAAAAAAAAAAAAAAAAAAAAAAAAAAAAAAAAAAAAAAAAAAAAAAAAAAAAAAAAAAAAAAAAAAAAAAAAAAAAAAAAAAAAAAAAAAAAAAAAAAAAAAAAAAAAAAAAAAAAAAAAAAAAAAAAAAAAAAAAAAAAAAAAAAAAAAAAAAAAAAAAAAAAAAAAAAAAAAAAAAAAAAAAAAAAAAAAAAAAAAAAAAAAAAAAAAAAAAAAAAAAAAAAAAAAAAAAAAAAAAAAAAAAAAAAAAAAAAAAAAAAAAAAAAAAAAAAAAAAAAAAAAAAAAAAAAAAAAAAAAAAAAAAAAAAAAAAAAAAAAAAAAAAAAAAAAAAAAAAAAAAAAAAAAAAAAAAAAAAAAAAAAAAAAAAAAAAAAAAAAAAAAAAAAAAAAAAAAAAAAAAAAAAAAAAAAAAAAAAAAAAAAAAAAAAAAAAAAAAAAAAAAAAAAAAAAAAAAAAAAAAAAAAAAAAAAAAAAAAAAAAAAAAAAAAAAAAAAAAAAAAAAAAAAAAAAAAAAAAAAAAAAAAAAAAAAAAAAAAAAAAAAAAAAAAAAAAAAAAAAAAAAAAAAAAAAAAAAAAAAAAAAAAAAAAAAAAAAAAAAAAAAAAAAAAAAAAAAAAAAAAAAAAAAAAAAAAAAAAAAAAAAAAAAAAAAAAAAAAAAAAAAAAAAAAAAAAAAAAAAAAAAAAAAAAAAAAAAAAAAAAAAAAAAAAAAAAAAAAAAAAAAAAAAAAAAAAAAAAAAAAAAAAAAAAAAAAAAAAAAAAAAAAAAAAAAAAAAAAAAAAAAAAAAAAAAAAAAAAAAAAAAAAAAAAAAAAAAAAAAAAAAAAAAAAAAAAAAAAAAAAAAAAAAAAAAAAAAAAAAAAAAAAAAAAAAAAAAAAAAAAAAAAAAAAAAAAAAAAAAAAAAAAAAAAAAAAAAAAAAAAAAAAAAAAAAAAAAAAAAAAAAAAAAAAAAAAAAAAAAAAAAAAAAAAAAAAAAAAAAAAAAAAAAAAAAAAAAAAAAAAAAAAAAAAAAAAAAAAAAAAAAAAAAAAAAAAAAAAAAAAAAAAAAAAAAAAAAAPZYQAIo0w1SMCfPdlaqa9Hp2ro9J38eI84GYGq7TpbMIINAOIjFRa+RIBLZ/PNAP4HIQrNms+SHaUHC3vQ/kAHG8mY=</c2pa:manifest></metadata>
<defs>
<filter id="gp0" x="0" y="0" width="100%" height="100%">
<feTurbulence type="fractalNoise" baseFrequency="0.9" numOctaves="3" stitchTiles="stitch"/>
<feColorMatrix type="saturate" values="0"/>
</filter>
<clipPath id="cp0"><rect width="480" height="480"/></clipPath>
</defs>
<g clip-path="url(#cp0)">
<rect width="480" height="480" fill="#141822"/><circle cx="10" cy="10" r="4" fill="#FF3D2E" opacity="0.22"/><circle cx="36" cy="10" r="4" fill="#FF3D2E" opacity="0.22"/><circle cx="62" cy="10" r="4" fill="#FF3D2E" opacity="0.22"/><circle cx="88" cy="10" r="4" fill="#FF3D2E" opacity="0.22"/><circle cx="114" cy="10" r="4" fill="#FF3D2E" opacity="0.22"/><circle cx="140" cy="10" r="4" fill="#FF3D2E" opacity="0.22"/><circle cx="166" cy="10" r="4" fill="#FF3D2E" opacity="0.22"/><circle cx="192" cy="10" r="4" fill="#FF3D2E" opacity="0.22"/><circle cx="218" cy="10" r="4" fill="#FF3D2E" opacity="0.22"/><circle cx="244" cy="10" r="4" fill="#FF3D2E" opacity="0.22"/><circle cx="270" cy="10" r="4" fill="#FF3D2E" opacity="0.22"/><circle cx="296" cy="10" r="4" fill="#FF3D2E" opacity="0.22"/><circle cx="322" cy="10" r="4" fill="#FF3D2E" opacity="0.22"/><circle cx="348" cy="10" r="4" fill="#FF3D2E" opacity="0.22"/><circle cx="374" cy="10" r="4" fill="#FF3D2E" opacity="0.22"/><circle cx="400" cy="10" r="4" fill="#FF3D2E" opacity="0.22"/><circle cx="426" cy="10" r="4" fill="#FF3D2E" opacity="0.22"/><circle cx="452" cy="10" r="4" fill="#FF3D2E" opacity="0.22"/><circle cx="478" cy="10" r="4" fill="#FF3D2E" opacity="0.22"/><circle cx="10" cy="36" r="4" fill="#FF3D2E" opacity="0.22"/><circle cx="36" cy="36" r="4" fill="#FF3D2E" opacity="0.22"/><circle cx="62" cy="36" r="4" fill="#FF3D2E" opacity="0.22"/><circle cx="88" cy="36" r="4" fill="#FF3D2E" opacity="0.22"/><circle cx="114" cy="36" r="4" fill="#FF3D2E" opacity="0.22"/><circle cx="140" cy="36" r="4" fill="#FF3D2E" opacity="0.22"/><circle cx="166" cy="36" r="4" fill="#FF3D2E" opacity="0.22"/><circle cx="192" cy="36" r="4" fill="#FF3D2E" opacity="0.22"/><circle cx="218" cy="36" r="4" fill="#FF3D2E" opacity="0.22"/><circle cx="244" cy="36" r="4" fill="#FF3D2E" opacity="0.22"/><circle cx="270" cy="36" r="4" fill="#FF3D2E" opacity="0.22"/><circle cx="296" cy="36" r="4" fill="#FF3D2E" opacity="0.22"/><circle cx="322" cy="36" r="4" fill="#FF3D2E" opacity="0.22"/><circle cx="348" cy="36" r="4" fill="#FF3D2E" opacity="0.22"/><circle cx="374" cy="36" r="4" fill="#FF3D2E" opacity="0.22"/><circle cx="400" cy="36" r="4" fill="#FF3D2E" opacity="0.22"/><circle cx="426" cy="36" r="4" fill="#FF3D2E" opacity="0.22"/><circle cx="452" cy="36" r="4" fill="#FF3D2E" opacity="0.22"/><circle cx="478" cy="36" r="4" fill="#FF3D2E" opacity="0.22"/><circle cx="10" cy="62" r="4" fill="#FF3D2E" opacity="0.22"/><circle cx="36" cy="62" r="4" fill="#FF3D2E" opacity="0.22"/><circle cx="62" cy="62" r="4" fill="#FF3D2E" opacity="0.22"/><circle cx="88" cy="62" r="4" fill="#FF3D2E" opacity="0.22"/><circle cx="114" cy="62" r="4" fill="#FF3D2E" opacity="0.22"/><circle cx="140" cy="62" r="4" fill="#FF3D2E" opacity="0.22"/><circle cx="166" cy="62" r="4" fill="#FF3D2E" opacity="0.22"/><circle cx="192" cy="62" r="4" fill="#FF3D2E" opacity="0.22"/><circle cx="218" cy="62" r="4" fill="#FF3D2E" opacity="0.22"/><circle cx="244" cy="62" r="4" fill="#FF3D2E" opacity="0.22"/><circle cx="270" cy="62" r="4" fill="#FF3D2E" opacity="0.22"/><circle cx="296" cy="62" r="4" fill="#FF3D2E" opacity="0.22"/><circle cx="322" cy="62" r="4" fill="#FF3D2E" opacity="0.22"/><circle cx="348" cy="62" r="4" fill="#FF3D2E" opacity="0.22"/><circle cx="374" cy="62" r="4" fill="#FF3D2E" opacity="0.22"/><circle cx="400" cy="62" r="4" fill="#FF3D2E" opacity="0.22"/><circle cx="426" cy="62" r="4" fill="#FF3D2E" opacity="0.22"/><circle cx="452" cy="62" r="4" fill="#FF3D2E" opacity="0.22"/><circle cx="478" cy="62" r="4" fill="#FF3D2E" opacity="0.22"/><circle cx="10" cy="88" r="4" fill="#FF3D2E" opacity="0.22"/><circle cx="36" cy="88" r="4" fill="#FF3D2E" opacity="0.22"/><circle cx="62" cy="88" r="4" fill="#FF3D2E" opacity="0.22"/><circle cx="88" cy="88" r="4" fill="#FF3D2E" opacity="0.22"/><circle cx="114" cy="88" r="4" fill="#FF3D2E" opacity="0.22"/><circle cx="140" cy="88" r="4" fill="#FF3D2E" opacity="0.22"/><circle cx="166" cy="88" r="4" fill="#FF3D2E" opacity="0.22"/><circle cx="192" cy="88" r="4" fill="#FF3D2E" opacity="0.22"/><circle cx="218" cy="88" r="4" fill="#FF3D2E" opacity="0.22"/><circle cx="244" cy="88" r="4" fill="#FF3D2E" opacity="0.22"/><circle cx="270" cy="88" r="4" fill="#FF3D2E" opacity="0.22"/><circle cx="296" cy="88" r="4" fill="#FF3D2E" opacity="0.22"/><circle cx="322" cy="88" r="4" fill="#FF3D2E" opacity="0.22"/><circle cx="348" cy="88" r="4" fill="#FF3D2E" opacity="0.22"/><circle cx="374" cy="88" r="4" fill="#FF3D2E" opacity="0.22"/><circle cx="400" cy="88" r="4" fill="#FF3D2E" opacity="0.22"/><circle cx="426" cy="88" r="4" fill="#FF3D2E" opacity="0.22"/><circle cx="452" cy="88" r="4" fill="#FF3D2E" opacity="0.22"/><circle cx="478" cy="88" r="4" fill="#FF3D2E" opacity="0.22"/><circle cx="10" cy="114" r="4" fill="#FF3D2E" opacity="0.22"/><circle cx="36" cy="114" r="4" fill="#FF3D2E" opacity="0.22"/><circle cx="62" cy="114" r="4" fill="#FF3D2E" opacity="0.22"/><circle cx="88" cy="114" r="4" fill="#FF3D2E" opacity="0.22"/><circle cx="114" cy="114" r="4" fill="#FF3D2E" opacity="0.22"/><circle cx="140" cy="114" r="4" fill="#FF3D2E" opacity="0.22"/><circle cx="166" cy="114" r="4" fill="#FF3D2E" opacity="0.22"/><circle cx="192" cy="114" r="4" fill="#FF3D2E" opacity="0.22"/><circle cx="218" cy="114" r="4" fill="#FF3D2E" opacity="0.22"/><circle cx="244" cy="114" r="4" fill="#FF3D2E" opacity="0.22"/><circle cx="270" cy="114" r="4" fill="#FF3D2E" opacity="0.22"/><circle cx="296" cy="114" r="4" fill="#FF3D2E" opacity="0.22"/><circle cx="322" cy="114" r="4" fill="#FF3D2E" opacity="0.22"/><circle cx="348" cy="114" r="4" fill="#FF3D2E" opacity="0.22"/><circle cx="374" cy="114" r="4" fill="#FF3D2E" opacity="0.22"/><circle cx="400" cy="114" r="4" fill="#FF3D2E" opacity="0.22"/><circle cx="426" cy="114" r="4" fill="#FF3D2E" opacity="0.22"/><circle cx="452" cy="114" r="4" fill="#FF3D2E" opacity="0.22"/><circle cx="478" cy="114" r="4" fill="#FF3D2E" opacity="0.22"/><circle cx="10" cy="140" r="4" fill="#FF3D2E" opacity="0.22"/><circle cx="36" cy="140" r="4" fill="#FF3D2E" opacity="0.22"/><circle cx="62" cy="140" r="4" fill="#FF3D2E" opacity="0.22"/><circle cx="88" cy="140" r="4" fill="#FF3D2E" opacity="0.22"/><circle cx="114" cy="140" r="4" fill="#FF3D2E" opacity="0.22"/><circle cx="140" cy="140" r="4" fill="#FF3D2E" opacity="0.22"/><circle cx="166" cy="140" r="4" fill="#FF3D2E" opacity="0.22"/><circle cx="192" cy="140" r="4" fill="#FF3D2E" opacity="0.22"/><circle cx="218" cy="140" r="4" fill="#FF3D2E" opacity="0.22"/><circle cx="244" cy="140" r="4" fill="#FF3D2E" opacity="0.22"/><circle cx="270" cy="140" r="4" fill="#FF3D2E" opacity="0.22"/><circle cx="296" cy="140" r="4" fill="#FF3D2E" opacity="0.22"/><circle cx="322" cy="140" r="4" fill="#FF3D2E" opacity="0.22"/><circle cx="348" cy="140" r="4" fill="#FF3D2E" opacity="0.22"/><circle cx="374" cy="140" r="4" fill="#FF3D2E" opacity="0.22"/><circle cx="400" cy="140" r="4" fill="#FF3D2E" opacity="0.22"/><circle cx="426" cy="140" r="4" fill="#FF3D2E" opacity="0.22"/><circle cx="452" cy="140" r="4" fill="#FF3D2E" opacity="0.22"/><circle cx="478" cy="140" r="4" fill="#FF3D2E" opacity="0.22"/><circle cx="10" cy="166" r="4" fill="#FF3D2E" opacity="0.22"/><circle cx="36" cy="166" r="4" fill="#FF3D2E" opacity="0.22"/><circle cx="62" cy="166" r="4" fill="#FF3D2E" opacity="0.22"/><circle cx="88" cy="166" r="4" fill="#FF3D2E" opacity="0.22"/><circle cx="114" cy="166" r="4" fill="#FF3D2E" opacity="0.22"/><circle cx="140" cy="166" r="4" fill="#FF3D2E" opacity="0.22"/><circle cx="166" cy="166" r="4" fill="#FF3D2E" opacity="0.22"/><circle cx="192" cy="166" r="4" fill="#FF3D2E" opacity="0.22"/><circle cx="218" cy="166" r="4" fill="#FF3D2E" opacity="0.22"/><circle cx="244" cy="166" r="4" fill="#FF3D2E" opacity="0.22"/><circle cx="270" cy="166" r="4" fill="#FF3D2E" opacity="0.22"/><circle cx="296" cy="166" r="4" fill="#FF3D2E" opacity="0.22"/><circle cx="322" cy="166" r="4" fill="#FF3D2E" opacity="0.22"/><circle cx="348" cy="166" r="4" fill="#FF3D2E" opacity="0.22"/><circle cx="374" cy="166" r="4" fill="#FF3D2E" opacity="0.22"/><circle cx="400" cy="166" r="4" fill="#FF3D2E" opacity="0.22"/><circle cx="426" cy="166" r="4" fill="#FF3D2E" opacity="0.22"/><circle cx="452" cy="166" r="4" fill="#FF3D2E" opacity="0.22"/><circle cx="478" cy="166" r="4" fill="#FF3D2E" opacity="0.22"/><circle cx="10" cy="192" r="4" fill="#FF3D2E" opacity="0.22"/><circle cx="36" cy="192" r="4" fill="#FF3D2E" opacity="0.22"/><circle cx="62" cy="192" r="4" fill="#FF3D2E" opacity="0.22"/><circle cx="88" cy="192" r="4" fill="#FF3D2E" opacity="0.22"/><circle cx="114" cy="192" r="4" fill="#FF3D2E" opacity="0.22"/><circle cx="140" cy="192" r="4" fill="#FF3D2E" opacity="0.22"/><circle cx="166" cy="192" r="4" fill="#FF3D2E" opacity="0.22"/><circle cx="192" cy="192" r="4" fill="#FF3D2E" opacity="0.22"/><circle cx="218" cy="192" r="4" fill="#FF3D2E" opacity="0.22"/><circle cx="244" cy="192" r="4" fill="#FF3D2E" opacity="0.22"/><circle cx="270" cy="192" r="4" fill="#FF3D2E" opacity="0.22"/><circle cx="296" cy="192" r="4" fill="#FF3D2E" opacity="0.22"/><circle cx="322" cy="192" r="4" fill="#FF3D2E" opacity="0.22"/><circle cx="348" cy="192" r="4" fill="#FF3D2E" opacity="0.22"/><circle cx="374" cy="192" r="4" fill="#FF3D2E" opacity="0.22"/><circle cx="400" cy="192" r="4" fill="#FF3D2E" opacity="0.22"/><circle cx="426" cy="192" r="4" fill="#FF3D2E" opacity="0.22"/><circle cx="452" cy="192" r="4" fill="#FF3D2E" opacity="0.22"/><circle cx="478" cy="192" r="4" fill="#FF3D2E" opacity="0.22"/><circle cx="10" cy="218" r="4" fill="#FF3D2E" opacity="0.22"/><circle cx="36" cy="218" r="4" fill="#FF3D2E" opacity="0.22"/><circle cx="62" cy="218" r="4" fill="#FF3D2E" opacity="0.22"/><circle cx="88" cy="218" r="4" fill="#FF3D2E" opacity="0.22"/><circle cx="114" cy="218" r="4" fill="#FF3D2E" opacity="0.22"/><circle cx="140" cy="218" r="4" fill="#FF3D2E" opacity="0.22"/><circle cx="166" cy="218" r="4" fill="#FF3D2E" opacity="0.22"/><circle cx="192" cy="218" r="4" fill="#FF3D2E" opacity="0.22"/><circle cx="218" cy="218" r="4" fill="#FF3D2E" opacity="0.22"/><circle cx="244" cy="218" r="4" fill="#FF3D2E" opacity="0.22"/><circle cx="270" cy="218" r="4" fill="#FF3D2E" opacity="0.22"/><circle cx="296" cy="218" r="4" fill="#FF3D2E" opacity="0.22"/><circle cx="322" cy="218" r="4" fill="#FF3D2E" opacity="0.22"/><circle cx="348" cy="218" r="4" fill="#FF3D2E" opacity="0.22"/><circle cx="374" cy="218" r="4" fill="#FF3D2E" opacity="0.22"/><circle cx="400" cy="218" r="4" fill="#FF3D2E" opacity="0.22"/><circle cx="426" cy="218" r="4" fill="#FF3D2E" opacity="0.22"/><circle cx="452" cy="218" r="4" fill="#FF3D2E" opacity="0.22"/><circle cx="478" cy="218" r="4" fill="#FF3D2E" opacity="0.22"/><circle cx="10" cy="244" r="4" fill="#FF3D2E" opacity="0.22"/><circle cx="36" cy="244" r="4" fill="#FF3D2E" opacity="0.22"/><circle cx="62" cy="244" r="4" fill="#FF3D2E" opacity="0.22"/><circle cx="88" cy="244" r="4" fill="#FF3D2E" opacity="0.22"/><circle cx="114" cy="244" r="4" fill="#FF3D2E" opacity="0.22"/><circle cx="140" cy="244" r="4" fill="#FF3D2E" opacity="0.22"/><circle cx="166" cy="244" r="4" fill="#FF3D2E" opacity="0.22"/><circle cx="192" cy="244" r="4" fill="#FF3D2E" opacity="0.22"/><circle cx="218" cy="244" r="4" fill="#FF3D2E" opacity="0.22"/><circle cx="244" cy="244" r="4" fill="#FF3D2E" opacity="0.22"/><circle cx="270" cy="244" r="4" fill="#FF3D2E" opacity="0.22"/><circle cx="296" cy="244" r="4" fill="#FF3D2E" opacity="0.22"/><circle cx="322" cy="244" r="4" fill="#FF3D2E" opacity="0.22"/><circle cx="348" cy="244" r="4" fill="#FF3D2E" opacity="0.22"/><circle cx="374" cy="244" r="4" fill="#FF3D2E" opacity="0.22"/><circle cx="400" cy="244" r="4" fill="#FF3D2E" opacity="0.22"/><circle cx="426" cy="244" r="4" fill="#FF3D2E" opacity="0.22"/><circle cx="452" cy="244" r="4" fill="#FF3D2E" opacity="0.22"/><circle cx="478" cy="244" r="4" fill="#FF3D2E" opacity="0.22"/><circle cx="10" cy="270" r="4" fill="#FF3D2E" opacity="0.22"/><circle cx="36" cy="270" r="4" fill="#FF3D2E" opacity="0.22"/><circle cx="62" cy="270" r="4" fill="#FF3D2E" opacity="0.22"/><circle cx="88" cy="270" r="4" fill="#FF3D2E" opacity="0.22"/><circle cx="114" cy="270" r="4" fill="#FF3D2E" opacity="0.22"/><circle cx="140" cy="270" r="4" fill="#FF3D2E" opacity="0.22"/><circle cx="166" cy="270" r="4" fill="#FF3D2E" opacity="0.22"/><circle cx="192" cy="270" r="4" fill="#FF3D2E" opacity="0.22"/><circle cx="218" cy="270" r="4" fill="#FF3D2E" opacity="0.22"/><circle cx="244" cy="270" r="4" fill="#FF3D2E" opacity="0.22"/><circle cx="270" cy="270" r="4" fill="#FF3D2E" opacity="0.22"/><circle cx="296" cy="270" r="4" fill="#FF3D2E" opacity="0.22"/><circle cx="322" cy="270" r="4" fill="#FF3D2E" opacity="0.22"/><circle cx="348" cy="270" r="4" fill="#FF3D2E" opacity="0.22"/><circle cx="374" cy="270" r="4" fill="#FF3D2E" opacity="0.22"/><circle cx="400" cy="270" r="4" fill="#FF3D2E" opacity="0.22"/><circle cx="426" cy="270" r="4" fill="#FF3D2E" opacity="0.22"/><circle cx="452" cy="270" r="4" fill="#FF3D2E" opacity="0.22"/><circle cx="478" cy="270" r="4" fill="#FF3D2E" opacity="0.22"/><circle cx="10" cy="296" r="4" fill="#FF3D2E" opacity="0.22"/><circle cx="36" cy="296" r="4" fill="#FF3D2E" opacity="0.22"/><circle cx="62" cy="296" r="4" fill="#FF3D2E" opacity="0.22"/><circle cx="88" cy="296" r="4" fill="#FF3D2E" opacity="0.22"/><circle cx="114" cy="296" r="4" fill="#FF3D2E" opacity="0.22"/><circle cx="140" cy="296" r="4" fill="#FF3D2E" opacity="0.22"/><circle cx="166" cy="296" r="4" fill="#FF3D2E" opacity="0.22"/><circle cx="192" cy="296" r="4" fill="#FF3D2E" opacity="0.22"/><circle cx="218" cy="296" r="4" fill="#FF3D2E" opacity="0.22"/><circle cx="244" cy="296" r="4" fill="#FF3D2E" opacity="0.22"/><circle cx="270" cy="296" r="4" fill="#FF3D2E" opacity="0.22"/><circle cx="296" cy="296" r="4" fill="#FF3D2E" opacity="0.22"/><circle cx="322" cy="296" r="4" fill="#FF3D2E" opacity="0.22"/><circle cx="348" cy="296" r="4" fill="#FF3D2E" opacity="0.22"/><circle cx="374" cy="296" r="4" fill="#FF3D2E" opacity="0.22"/><circle cx="400" cy="296" r="4" fill="#FF3D2E" opacity="0.22"/><circle cx="426" cy="296" r="4" fill="#FF3D2E" opacity="0.22"/><circle cx="452" cy="296" r="4" fill="#FF3D2E" opacity="0.22"/><circle cx="478" cy="296" r="4" fill="#FF3D2E" opacity="0.22"/><circle cx="10" cy="322" r="4" fill="#FF3D2E" opacity="0.22"/><circle cx="36" cy="322" r="4" fill="#FF3D2E" opacity="0.22"/><circle cx="62" cy="322" r="4" fill="#FF3D2E" opacity="0.22"/><circle cx="88" cy="322" r="4" fill="#FF3D2E" opacity="0.22"/><circle cx="114" cy="322" r="4" fill="#FF3D2E" opacity="0.22"/><circle cx="140" cy="322" r="4" fill="#FF3D2E" opacity="0.22"/><circle cx="166" cy="322" r="4" fill="#FF3D2E" opacity="0.22"/><circle cx="192" cy="322" r="4" fill="#FF3D2E" opacity="0.22"/><circle cx="218" cy="322" r="4" fill="#FF3D2E" opacity="0.22"/><circle cx="244" cy="322" r="4" fill="#FF3D2E" opacity="0.22"/><circle cx="270" cy="322" r="4" fill="#FF3D2E" opacity="0.22"/><circle cx="296" cy="322" r="4" fill="#FF3D2E" opacity="0.22"/><circle cx="322" cy="322" r="4" fill="#FF3D2E" opacity="0.22"/><circle cx="348" cy="322" r="4" fill="#FF3D2E" opacity="0.22"/><circle cx="374" cy="322" r="4" fill="#FF3D2E" opacity="0.22"/><circle cx="400" cy="322" r="4" fill="#FF3D2E" opacity="0.22"/><circle cx="426" cy="322" r="4" fill="#FF3D2E" opacity="0.22"/><circle cx="452" cy="322" r="4" fill="#FF3D2E" opacity="0.22"/><circle cx="478" cy="322" r="4" fill="#FF3D2E" opacity="0.22"/><circle cx="10" cy="348" r="4" fill="#FF3D2E" opacity="0.22"/><circle cx="36" cy="348" r="4" fill="#FF3D2E" opacity="0.22"/><circle cx="62" cy="348" r="4" fill="#FF3D2E" opacity="0.22"/><circle cx="88" cy="348" r="4" fill="#FF3D2E" opacity="0.22"/><circle cx="114" cy="348" r="4" fill="#FF3D2E" opacity="0.22"/><circle cx="140" cy="348" r="4" fill="#FF3D2E" opacity="0.22"/><circle cx="166" cy="348" r="4" fill="#FF3D2E" opacity="0.22"/><circle cx="192" cy="348" r="4" fill="#FF3D2E" opacity="0.22"/><circle cx="218" cy="348" r="4" fill="#FF3D2E" opacity="0.22"/><circle cx="244" cy="348" r="4" fill="#FF3D2E" opacity="0.22"/><circle cx="270" cy="348" r="4" fill="#FF3D2E" opacity="0.22"/><circle cx="296" cy="348" r="4" fill="#FF3D2E" opacity="0.22"/><circle cx="322" cy="348" r="4" fill="#FF3D2E" opacity="0.22"/><circle cx="348" cy="348" r="4" fill="#FF3D2E" opacity="0.22"/><circle cx="374" cy="348" r="4" fill="#FF3D2E" opacity="0.22"/><circle cx="400" cy="348" r="4" fill="#FF3D2E" opacity="0.22"/><circle cx="426" cy="348" r="4" fill="#FF3D2E" opacity="0.22"/><circle cx="452" cy="348" r="4" fill="#FF3D2E" opacity="0.22"/><circle cx="478" cy="348" r="4" fill="#FF3D2E" opacity="0.22"/><circle cx="10" cy="374" r="4" fill="#FF3D2E" opacity="0.22"/><circle cx="36" cy="374" r="4" fill="#FF3D2E" opacity="0.22"/><circle cx="62" cy="374" r="4" fill="#FF3D2E" opacity="0.22"/><circle cx="88" cy="374" r="4" fill="#FF3D2E" opacity="0.22"/><circle cx="114" cy="374" r="4" fill="#FF3D2E" opacity="0.22"/><circle cx="140" cy="374" r="4" fill="#FF3D2E" opacity="0.22"/><circle cx="166" cy="374" r="4" fill="#FF3D2E" opacity="0.22"/><circle cx="192" cy="374" r="4" fill="#FF3D2E" opacity="0.22"/><circle cx="218" cy="374" r="4" fill="#FF3D2E" opacity="0.22"/><circle cx="244" cy="374" r="4" fill="#FF3D2E" opacity="0.22"/><circle cx="270" cy="374" r="4" fill="#FF3D2E" opacity="0.22"/><circle cx="296" cy="374" r="4" fill="#FF3D2E" opacity="0.22"/><circle cx="322" cy="374" r="4" fill="#FF3D2E" opacity="0.22"/><circle cx="348" cy="374" r="4" fill="#FF3D2E" opacity="0.22"/><circle cx="374" cy="374" r="4" fill="#FF3D2E" opacity="0.22"/><circle cx="400" cy="374" r="4" fill="#FF3D2E" opacity="0.22"/><circle cx="426" cy="374" r="4" fill="#FF3D2E" opacity="0.22"/><circle cx="452" cy="374" r="4" fill="#FF3D2E" opacity="0.22"/><circle cx="478" cy="374" r="4" fill="#FF3D2E" opacity="0.22"/><circle cx="10" cy="400" r="4" fill="#FF3D2E" opacity="0.22"/><circle cx="36" cy="400" r="4" fill="#FF3D2E" opacity="0.22"/><circle cx="62" cy="400" r="4" fill="#FF3D2E" opacity="0.22"/><circle cx="88" cy="400" r="4" fill="#FF3D2E" opacity="0.22"/><circle cx="114" cy="400" r="4" fill="#FF3D2E" opacity="0.22"/><circle cx="140" cy="400" r="4" fill="#FF3D2E" opacity="0.22"/><circle cx="166" cy="400" r="4" fill="#FF3D2E" opacity="0.22"/><circle cx="192" cy="400" r="4" fill="#FF3D2E" opacity="0.22"/><circle cx="218" cy="400" r="4" fill="#FF3D2E" opacity="0.22"/><circle cx="244" cy="400" r="4" fill="#FF3D2E" opacity="0.22"/><circle cx="270" cy="400" r="4" fill="#FF3D2E" opacity="0.22"/><circle cx="296" cy="400" r="4" fill="#FF3D2E" opacity="0.22"/><circle cx="322" cy="400" r="4" fill="#FF3D2E" opacity="0.22"/><circle cx="348" cy="400" r="4" fill="#FF3D2E" opacity="0.22"/><circle cx="374" cy="400" r="4" fill="#FF3D2E" opacity="0.22"/><circle cx="400" cy="400" r="4" fill="#FF3D2E" opacity="0.22"/><circle cx="426" cy="400" r="4" fill="#FF3D2E" opacity="0.22"/><circle cx="452" cy="400" r="4" fill="#FF3D2E" opacity="0.22"/><circle cx="478" cy="400" r="4" fill="#FF3D2E" opacity="0.22"/><circle cx="10" cy="426" r="4" fill="#FF3D2E" opacity="0.22"/><circle cx="36" cy="426" r="4" fill="#FF3D2E" opacity="0.22"/><circle cx="62" cy="426" r="4" fill="#FF3D2E" opacity="0.22"/><circle cx="88" cy="426" r="4" fill="#FF3D2E" opacity="0.22"/><circle cx="114" cy="426" r="4" fill="#FF3D2E" opacity="0.22"/><circle cx="140" cy="426" r="4" fill="#FF3D2E" opacity="0.22"/><circle cx="166" cy="426" r="4" fill="#FF3D2E" opacity="0.22"/><circle cx="192" cy="426" r="4" fill="#FF3D2E" opacity="0.22"/><circle cx="218" cy="426" r="4" fill="#FF3D2E" opacity="0.22"/><circle cx="244" cy="426" r="4" fill="#FF3D2E" opacity="0.22"/><circle cx="270" cy="426" r="4" fill="#FF3D2E" opacity="0.22"/><circle cx="296" cy="426" r="4" fill="#FF3D2E" opacity="0.22"/><circle cx="322" cy="426" r="4" fill="#FF3D2E" opacity="0.22"/><circle cx="348" cy="426" r="4" fill="#FF3D2E" opacity="0.22"/><circle cx="374" cy="426" r="4" fill="#FF3D2E" opacity="0.22"/><circle cx="400" cy="426" r="4" fill="#FF3D2E" opacity="0.22"/><circle cx="426" cy="426" r="4" fill="#FF3D2E" opacity="0.22"/><circle cx="452" cy="426" r="4" fill="#FF3D2E" opacity="0.22"/><circle cx="478" cy="426" r="4" fill="#FF3D2E" opacity="0.22"/><circle cx="10" cy="452" r="4" fill="#FF3D2E" opacity="0.22"/><circle cx="36" cy="452" r="4" fill="#FF3D2E" opacity="0.22"/><circle cx="62" cy="452" r="4" fill="#FF3D2E" opacity="0.22"/><circle cx="88" cy="452" r="4" fill="#FF3D2E" opacity="0.22"/><circle cx="114" cy="452" r="4" fill="#FF3D2E" opacity="0.22"/><circle cx="140" cy="452" r="4" fill="#FF3D2E" opacity="0.22"/><circle cx="166" cy="452" r="4" fill="#FF3D2E" opacity="0.22"/><circle cx="192" cy="452" r="4" fill="#FF3D2E" opacity="0.22"/><circle cx="218" cy="452" r="4" fill="#FF3D2E" opacity="0.22"/><circle cx="244" cy="452" r="4" fill="#FF3D2E" opacity="0.22"/><circle cx="270" cy="452" r="4" fill="#FF3D2E" opacity="0.22"/><circle cx="296" cy="452" r="4" fill="#FF3D2E" opacity="0.22"/><circle cx="322" cy="452" r="4" fill="#FF3D2E" opacity="0.22"/><circle cx="348" cy="452" r="4" fill="#FF3D2E" opacity="0.22"/><circle cx="374" cy="452" r="4" fill="#FF3D2E" opacity="0.22"/><circle cx="400" cy="452" r="4" fill="#FF3D2E" opacity="0.22"/><circle cx="426" cy="452" r="4" fill="#FF3D2E" opacity="0.22"/><circle cx="452" cy="452" r="4" fill="#FF3D2E" opacity="0.22"/><circle cx="478" cy="452" r="4" fill="#FF3D2E" opacity="0.22"/><circle cx="10" cy="478" r="4" fill="#FF3D2E" opacity="0.22"/><circle cx="36" cy="478" r="4" fill="#FF3D2E" opacity="0.22"/><circle cx="62" cy="478" r="4" fill="#FF3D2E" opacity="0.22"/><circle cx="88" cy="478" r="4" fill="#FF3D2E" opacity="0.22"/><circle cx="114" cy="478" r="4" fill="#FF3D2E" opacity="0.22"/><circle cx="140" cy="478" r="4" fill="#FF3D2E" opacity="0.22"/><circle cx="166" cy="478" r="4" fill="#FF3D2E" opacity="0.22"/><circle cx="192" cy="478" r="4" fill="#FF3D2E" opacity="0.22"/><circle cx="218" cy="478" r="4" fill="#FF3D2E" opacity="0.22"/><circle cx="244" cy="478" r="4" fill="#FF3D2E" opacity="0.22"/><circle cx="270" cy="478" r="4" fill="#FF3D2E" opacity="0.22"/><circle cx="296" cy="478" r="4" fill="#FF3D2E" opacity="0.22"/><circle cx="322" cy="478" r="4" fill="#FF3D2E" opacity="0.22"/><circle cx="348" cy="478" r="4" fill="#FF3D2E" opacity="0.22"/><circle cx="374" cy="478" r="4" fill="#FF3D2E" opacity="0.22"/><circle cx="400" cy="478" r="4" fill="#FF3D2E" opacity="0.22"/><circle cx="426" cy="478" r="4" fill="#FF3D2E" opacity="0.22"/><circle cx="452" cy="478" r="4" fill="#FF3D2E" opacity="0.22"/><circle cx="478" cy="478" r="4" fill="#FF3D2E" opacity="0.22"/><path d="M 29 480 Q 240 288 451 480 Z" fill="#EDF0F5"/><circle cx="240" cy="211" r="110" fill="#FF3D2E"/><rect x="110" y="77" width="259" height="48" rx="24" fill="#EDF0F5"/><rect x="77" y="115" width="326" height="22" rx="6" fill="#EDF0F5"/><circle cx="197" cy="221" r="30" fill="none" stroke="#141822" stroke-width="7"/><circle cx="283" cy="221" r="30" fill="none" stroke="#141822" stroke-width="7"/><line x1="227" y1="221" x2="253" y2="221" stroke="#141822" stroke-width="7"/><rect width="480" height="480" filter="url(#gp0)" opacity="0.13" style="mix-blend-mode:overlay"/>
</g></svg>